<svg width="143" height="28" viewBox="0 0 143 28" fill="none" xmlns="http://www.w3.org/2000/svg">
<path d="M0.268 27V1.476H6.712V27H0.268ZM5.38 27V21.456H17.692V27H5.38ZM28.7972 27.396C26.9012 27.396 25.2092 27 23.7212 26.208C22.2572 25.392 21.0932 24.288 20.2292 22.896C19.3652 21.48 18.9332 19.896 18.9332 18.144C18.9332 16.392 19.3532 14.832 20.1932 13.464C21.0572 12.072 22.2332 10.98 23.7212 10.188C25.2092 9.372 26.8892 8.964 28.7612 8.964C30.6332 8.964 32.3012 9.372 33.7652 10.188C35.2532 10.98 36.4292 12.072 37.2932 13.464C38.1572 14.832 38.5892 16.392 38.5892 18.144C38.5892 19.896 38.1572 21.48 37.2932 22.896C36.4532 24.288 35.2892 25.392 33.8012 26.208C32.3372 27 30.6692 27.396 28.7972 27.396ZM28.7612 21.816C29.4572 21.816 30.0572 21.672 30.5612 21.384C31.0892 21.072 31.4972 20.64 31.7852 20.088C32.0732 19.536 32.2172 18.9 32.2172 18.18C32.2172 17.46 32.0612 16.836 31.7492 16.308C31.4612 15.756 31.0652 15.336 30.5612 15.048C30.0572 14.736 29.4572 14.58 28.7612 14.58C28.0892 14.58 27.4892 14.736 26.9612 15.048C26.4332 15.36 26.0252 15.792 25.7372 16.344C25.4492 16.872 25.3052 17.496 25.3052 18.216C25.3052 18.912 25.4492 19.536 25.7372 20.088C26.0252 20.64 26.4332 21.072 26.9612 21.384C27.4892 21.672 28.0892 21.816 28.7612 21.816ZM47.7703 27.504C46.6903 27.504 45.6223 27.36 44.5663 27.072C43.5343 26.784 42.5623 26.4 41.6503 25.92C40.7623 25.416 40.0063 24.84 39.3823 24.192L42.8023 20.7C43.3783 21.3 44.0623 21.768 44.8543 22.104C45.6703 22.44 46.5343 22.608 47.4463 22.608C47.9743 22.608 48.3703 22.536 48.6343 22.392C48.9223 22.248 49.0663 22.044 49.0663 21.78C49.0663 21.396 48.8623 21.108 48.4543 20.916C48.0703 20.7 47.5543 20.52 46.9063 20.376C46.2823 20.208 45.6223 20.016 44.9263 19.8C44.2303 19.56 43.5583 19.248 42.9103 18.864C42.2623 18.48 41.7343 17.94 41.3263 17.244C40.9423 16.548 40.7503 15.66 40.7503 14.58C40.7503 13.452 41.0503 12.468 41.6503 11.628C42.2743 10.764 43.1383 10.092 44.2423 9.612C45.3463 9.108 46.6423 8.856 48.1303 8.856C49.6423 8.856 51.0823 9.12 52.4503 9.648C53.8183 10.152 54.9223 10.92 55.7623 11.952L52.3063 15.444C51.7303 14.796 51.0943 14.352 50.3983 14.112C49.7023 13.848 49.0663 13.716 48.4903 13.716C47.9383 13.716 47.5423 13.8 47.3023 13.968C47.0623 14.112 46.9423 14.316 46.9423 14.58C46.9423 14.892 47.1343 15.144 47.5183 15.336C47.9263 15.528 48.4423 15.708 49.0663 15.876C49.7143 16.02 50.3743 16.212 51.0463 16.452C51.7423 16.692 52.4023 17.028 53.0263 17.46C53.6743 17.868 54.1903 18.42 54.5743 19.116C54.9823 19.812 55.1863 20.712 55.1863 21.816C55.1863 23.568 54.5143 24.96 53.1703 25.992C51.8263 27 50.0263 27.504 47.7703 27.504ZM60.4316 27V2.124H66.6956V27H60.4316ZM56.5436 14.616V9.396H70.5836V14.616H56.5436ZM73.2172 27V1.476H79.6612V27H73.2172ZM78.3292 27V21.456H90.6412V27H78.3292ZM93.175 27V9.396H99.475V27H93.175ZM96.307 7.344C95.371 7.344 94.591 7.032 93.967 6.408C93.343 5.76 93.031 4.956 93.031 3.996C93.031 3.06 93.343 2.268 93.967 1.62C94.591 0.971998 95.371 0.647998 96.307 0.647998C97.291 0.647998 98.083 0.971998 98.683 1.62C99.307 2.268 99.619 3.06 99.619 3.996C99.619 4.956 99.307 5.76 98.683 6.408C98.083 7.032 97.291 7.344 96.307 7.344ZM114.537 27V17.064C114.537 16.248 114.297 15.612 113.817 15.156C113.337 14.676 112.725 14.436 111.981 14.436C111.477 14.436 111.021 14.544 110.613 14.76C110.229 14.976 109.929 15.276 109.713 15.66C109.497 16.044 109.389 16.512 109.389 17.064L106.941 15.912C106.941 14.496 107.253 13.284 107.877 12.276C108.501 11.244 109.353 10.452 110.433 9.9C111.537 9.324 112.785 9.036 114.177 9.036C115.449 9.036 116.577 9.336 117.561 9.936C118.569 10.512 119.361 11.292 119.937 12.276C120.513 13.26 120.801 14.376 120.801 15.624V27H114.537ZM103.125 27V9.396H109.389V27H103.125ZM135.417 27L129.873 17.784L135.381 9.396H142.257L135.417 18.864L135.597 16.56L142.617 27H135.417ZM124.113 27V0.755999H130.377V27H124.113Z" fill="url(#paint0_linear_51_897)"/>
<defs>
<linearGradient id="paint0_linear_51_897" x1="-2" y1="14" x2="143" y2="14" gradientUnits="userSpaceOnUse">
<stop stop-color="#0051FF"/>
<stop offset="1" stop-color="#0095FF"/>
</linearGradient>
</defs>
</svg>
